<svg width="20" height="20" viewBox="0 0 20 20" fill="none" xmlns="http://www.w3.org/2000/svg">
<path fill-rule="evenodd" clip-rule="evenodd" d="M10 2.00055C8.3971 2.00055 7.09766 3.29999 7.09766 4.90293C7.09766 6.50587 8.3971 7.80531 10 7.80531C11.603 7.80531 12.9024 6.50587 12.9024 4.90293C12.9024 3.29999 11.603 2.00055 10 2.00055ZM5.09766 4.90293C5.09766 2.19542 7.29253 0.000549316 10 0.000549316C12.7075 0.000549316 14.9024 2.19542 14.9024 4.90293C14.9024 7.61044 12.7075 9.80531 10 9.80531C7.29253 9.80531 5.09766 7.61044 5.09766 4.90293Z" fill="#9098B1"/>
<path fill-rule="evenodd" clip-rule="evenodd" d="M7.51784 13.3904C4.47035 13.3904 2 15.8608 2 18.9083V18.9994C2 19.5517 1.55228 19.9994 1 19.9994C0.447715 19.9994 0 19.5517 0 18.9994V18.9083C0 14.7562 3.36578 11.3904 7.51784 11.3904H12.4822C16.6342 11.3904 20 14.7562 20 18.9083V18.9994C20 19.5517 19.5523 19.9994 19 19.9994C18.4477 19.9994 18 19.5517 18 18.9994V18.9083C18 15.8608 15.5296 13.3904 12.4822 13.3904H7.51784Z" fill="#9098B1"/>
</svg>
